# Blender 4.2.1 LTS
# www.blender.org
mtllib Cabinet.mtl
o Ccabinet
v -7.590511 3.057021 16.124352
v -7.590511 3.057021 13.162261
v -2.530170 3.057021 13.162261
v -2.530170 3.057021 16.124352
v -7.423846 2.879068 13.162261
v -2.696836 2.879068 13.162261
v -7.423846 2.879068 16.090733
v -2.696836 2.879068 16.090733
v -7.590511 1.575975 16.124352
v -7.590511 1.575975 13.162261
v -2.530170 1.575975 16.124352
v -2.530170 1.575975 13.162261
v -7.423846 1.575975 13.162261
v -2.696836 1.575975 13.162261
v -7.423846 1.575975 16.090733
v -2.696836 1.575975 16.090733
v -2.353631 2.909001 13.162261
v -2.353631 1.723995 13.162261
v -2.353631 2.909001 16.043188
v -2.353631 1.723995 16.043188
v 0.000000 3.057021 13.162261
v 0.000000 3.057021 16.124352
v 0.000000 1.575975 13.162261
v 0.000000 1.575975 16.124352
v 0.000000 2.909001 13.162261
v 0.000000 1.723995 13.162261
v 0.000000 2.909001 16.043188
v 0.000000 1.723995 16.043188
v 7.590511 3.057021 16.124352
v 7.590511 3.057021 13.162261
v 2.530170 3.057021 13.162261
v 2.530170 3.057021 16.124352
v 7.423846 2.879068 13.162261
v 2.696836 2.879068 13.162261
v 7.423846 2.879068 16.090733
v 2.696836 2.879068 16.090733
v 7.590511 1.575975 16.124352
v 7.590511 1.575975 13.162261
v 2.530170 1.575975 16.124352
v 2.530170 1.575975 13.162261
v 7.423846 1.575975 13.162261
v 2.696836 1.575975 13.162261
v 7.423846 1.575975 16.090733
v 2.696836 1.575975 16.090733
v 2.353631 2.909001 13.162261
v 2.353631 1.723995 13.162261
v 2.353631 2.909001 16.043188
v 2.353631 1.723995 16.043188
v -7.590511 0.094930 16.124352
v -7.590511 0.094930 13.162261
v -2.530170 0.094930 13.162261
v -2.530170 0.094930 16.124352
v -7.423846 0.272882 13.162261
v -2.696836 0.272882 13.162261
v -7.423846 0.272882 16.090733
v -2.696836 0.272882 16.090733
v -2.353631 0.242949 13.162261
v -2.353631 1.427956 13.162261
v -2.353631 0.242949 16.043188
v -2.353631 1.427956 16.043188
v 0.000000 0.094930 13.162261
v 0.000000 0.094930 16.124352
v 0.000000 0.242949 13.162261
v 0.000000 1.427956 13.162261
v 0.000000 0.242949 16.043188
v 0.000000 1.427956 16.043188
v 7.590511 0.094930 16.124352
v 7.590511 0.094930 13.162261
v 2.530170 0.094930 13.162261
v 2.530170 0.094930 16.124352
v 7.423846 0.272882 13.162261
v 2.696836 0.272882 13.162261
v 7.423846 0.272882 16.090733
v 2.696836 0.272882 16.090733
v 2.353631 0.242949 13.162261
v 2.353631 1.427956 13.162261
v 2.353631 0.242949 16.043188
v 2.353631 1.427956 16.043188
vn -1.0000 -0.0000 -0.0000
vn -0.0000 -0.0000 1.0000
vn -0.0000 1.0000 -0.0000
vn -0.0000 -0.0000 -1.0000
vn -0.0000 -1.0000 -0.0000
vn 1.0000 -0.0000 -0.0000
vt 0.500000 0.000000
vt 0.625000 0.000000
vt 0.625000 0.250000
vt 0.500000 0.250000
vt 0.500000 0.916667
vt 0.625000 0.916667
vt 0.625000 1.000000
vt 0.500000 1.000000
vt 0.791667 0.500000
vt 0.875000 0.500000
vt 0.875000 0.750000
vt 0.791667 0.750000
vt 0.750000 0.500000
vt 0.750000 0.750000
vt 0.500000 0.875000
vt 0.625000 0.875000
vt 0.500000 0.333333
vt 0.625000 0.333333
vt 0.500000 0.375000
vt 0.625000 0.375000
s 0
f 9/1/1 1/2/1 2/3/1 10/4/1
f 11/5/2 4/6/2 1/7/2 9/8/2
f 3/9/3 2/10/3 1/11/3 4/12/3
f 21/13/3 3/9/3 4/12/3 22/14/3
f 24/15/2 22/16/2 4/6/2 11/5/2
f 12/17/4 3/18/4 17/18/4 18/17/4
f 5/10/5 6/9/5 8/9/5 7/10/5
f 10/4/4 2/3/4 5/3/4 13/4/4
f 2/10/4 3/9/4 6/9/4 5/10/4
f 15/4/4 7/3/4 8/18/4 16/17/4
f 13/4/6 5/3/6 7/3/6 15/4/6
f 6/18/1 14/17/1 16/17/1 8/18/1
f 3/18/4 12/17/4 14/17/4 6/18/4
f 23/19/4 12/17/4 18/17/4 26/19/4
f 26/19/3 18/17/3 20/17/3 28/19/3
f 18/17/6 17/18/6 19/18/6 20/17/6
f 17/9/5 25/13/5 27/13/5 19/9/5
f 20/17/4 19/18/4 27/20/4 28/19/4
f 3/9/4 21/13/4 25/13/4 17/9/4
f 37/1/6 38/4/6 30/3/6 29/2/6
f 39/5/2 37/8/2 29/7/2 32/6/2
f 31/9/3 32/12/3 29/11/3 30/10/3
f 21/13/3 22/14/3 32/12/3 31/9/3
f 24/15/2 39/5/2 32/6/2 22/16/2
f 40/17/4 46/17/4 45/18/4 31/18/4
f 33/10/5 35/10/5 36/9/5 34/9/5
f 38/4/4 41/4/4 33/3/4 30/3/4
f 30/10/4 33/10/4 34/9/4 31/9/4
f 43/4/4 44/17/4 36/18/4 35/3/4
f 41/4/1 43/4/1 35/3/1 33/3/1
f 34/18/6 36/18/6 44/17/6 42/17/6
f 31/18/4 34/18/4 42/17/4 40/17/4
f 23/19/4 26/19/4 46/17/4 40/17/4
f 26/19/3 28/19/3 48/17/3 46/17/3
f 46/17/1 48/17/1 47/18/1 45/18/1
f 45/9/5 47/9/5 27/13/5 25/13/5
f 48/17/4 28/19/4 27/20/4 47/18/4
f 31/9/4 45/9/4 25/13/4 21/13/4
f 9/1/1 10/4/1 50/3/1 49/2/1
f 11/5/2 9/8/2 49/7/2 52/6/2
f 51/9/5 52/12/5 49/11/5 50/10/5
f 61/13/5 62/14/5 52/12/5 51/9/5
f 24/15/2 11/5/2 52/6/2 62/16/2
f 12/17/4 58/17/4 57/18/4 51/18/4
f 53/10/3 55/10/3 56/9/3 54/9/3
f 10/4/4 13/4/4 53/3/4 50/3/4
f 50/10/4 53/10/4 54/9/4 51/9/4
f 15/4/4 16/17/4 56/18/4 55/3/4
f 13/4/6 15/4/6 55/3/6 53/3/6
f 54/18/1 56/18/1 16/17/1 14/17/1
f 51/18/4 54/18/4 14/17/4 12/17/4
f 23/19/4 64/19/4 58/17/4 12/17/4
f 64/19/5 66/19/5 60/17/5 58/17/5
f 58/17/6 60/17/6 59/18/6 57/18/6
f 57/9/3 59/9/3 65/13/3 63/13/3
f 60/17/4 66/19/4 65/20/4 59/18/4
f 51/9/4 57/9/4 63/13/4 61/13/4
f 37/1/6 67/2/6 68/3/6 38/4/6
f 39/5/2 70/6/2 67/7/2 37/8/2
f 69/9/5 68/10/5 67/11/5 70/12/5
f 61/13/5 69/9/5 70/12/5 62/14/5
f 24/15/2 62/16/2 70/6/2 39/5/2
f 40/17/4 69/18/4 75/18/4 76/17/4
f 71/10/3 72/9/3 74/9/3 73/10/3
f 38/4/4 68/3/4 71/3/4 41/4/4
f 68/10/4 69/9/4 72/9/4 71/10/4
f 43/4/4 73/3/4 74/18/4 44/17/4
f 41/4/1 71/3/1 73/3/1 43/4/1
f 72/18/6 42/17/6 44/17/6 74/18/6
f 69/18/4 40/17/4 42/17/4 72/18/4
f 23/19/4 40/17/4 76/17/4 64/19/4
f 64/19/5 76/17/5 78/17/5 66/19/5
f 76/17/1 75/18/1 77/18/1 78/17/1
f 75/9/3 63/13/3 65/13/3 77/9/3
f 78/17/4 77/18/4 65/20/4 66/19/4
f 69/9/4 61/13/4 63/13/4 75/9/4
