# Blender 4.2.1 LTS
# www.blender.org
mtllib Key.mtl
o Key
v 4.240071 0.161693 14.284538
v 4.285654 0.161693 14.284538
v 4.244061 0.161693 13.820617
v 4.281665 0.161693 13.846379
v 4.240071 0.116111 14.284538
v 4.285654 0.116111 14.284538
v 4.244061 0.116111 13.820617
v 4.281665 0.116111 13.846379
v 4.240071 0.161693 14.168778
v 4.240071 0.161693 14.243181
v 4.285654 0.161693 14.243181
v 4.285654 0.161693 14.168778
v 4.240071 0.116111 14.243181
v 4.240071 0.116111 14.168778
v 4.285654 0.116111 14.168778
v 4.285654 0.116111 14.243181
v 4.203217 0.161693 14.168778
v 4.203217 0.161693 14.243181
v 4.203217 0.116111 14.243181
v 4.203217 0.116111 14.168778
v 4.190373 0.161693 14.168778
v 4.190373 0.161693 14.243181
v 4.190373 0.116111 14.243181
v 4.190373 0.116111 14.168778
v 4.149610 0.161693 14.168778
v 4.149610 0.161693 14.243181
v 4.149610 0.116111 14.243181
v 4.149610 0.116111 14.168778
v 4.240071 0.161693 14.168778
v 4.240071 0.161693 14.243181
v 4.285654 0.161693 14.243181
v 4.285654 0.161693 14.168778
v 4.240071 0.116111 14.243181
v 4.240071 0.116111 14.168778
v 4.285654 0.116111 14.168778
v 4.285654 0.116111 14.243181
v 4.203217 0.161693 14.168778
v 4.203217 0.161693 14.243181
v 4.203217 0.116111 14.243181
v 4.203217 0.116111 14.168778
v 4.190373 0.161693 14.168778
v 4.190373 0.161693 14.243181
v 4.190373 0.116111 14.243181
v 4.190373 0.116111 14.168778
v 4.149610 0.161693 14.168778
v 4.149610 0.161693 14.243181
v 4.149610 0.116111 14.243181
v 4.149610 0.116111 14.168778
v 4.297335 0.156438 13.838918
v 4.286728 0.156438 13.805487
v 4.286728 0.121366 13.805487
v 4.297335 0.121366 13.838918
v 4.321949 0.153970 13.830216
v 4.312619 0.153970 13.801562
v 4.312619 0.123835 13.801562
v 4.321949 0.123835 13.830216
v 4.345167 0.153970 13.820349
v 4.327279 0.153970 13.796098
v 4.327279 0.123835 13.796098
v 4.345167 0.123835 13.820349
v 4.363557 0.153970 13.798063
v 4.336846 0.153970 13.784113
v 4.336846 0.123835 13.784113
v 4.363557 0.123835 13.798063
v 4.371546 0.153970 13.770041
v 4.341484 0.153970 13.767944
v 4.341484 0.123835 13.767944
v 4.371546 0.123835 13.770041
v 4.367691 0.153970 13.741796
v 4.339026 0.153970 13.751096
v 4.339026 0.123835 13.751096
v 4.367691 0.123835 13.741796
v 4.355862 0.151930 13.723872
v 4.335523 0.151930 13.740160
v 4.335523 0.125874 13.740160
v 4.355862 0.125874 13.723872
v 4.342677 0.150237 13.714581
v 4.329769 0.150237 13.733217
v 4.329769 0.127567 13.733217
v 4.342677 0.127567 13.714581
v 4.332082 0.150237 13.708708
v 4.322327 0.150237 13.729171
v 4.322327 0.127567 13.729171
v 4.332082 0.127567 13.708708
v 4.318800 0.150237 13.703290
v 4.311258 0.150237 13.724669
v 4.311258 0.127567 13.724669
v 4.318800 0.127567 13.703290
v 4.307657 0.150237 13.700059
v 4.304365 0.150237 13.722488
v 4.304365 0.127567 13.722488
v 4.307657 0.127567 13.700059
v 4.300596 0.150237 13.699974
v 4.298800 0.150237 13.722572
v 4.298800 0.127567 13.722572
v 4.300596 0.127567 13.699974
v 4.289323 0.150237 13.698171
v 4.287526 0.150237 13.720769
v 4.287526 0.127567 13.720769
v 4.289323 0.127567 13.698171
v 4.280338 0.151129 13.697250
v 4.281179 0.151129 13.721689
v 4.281179 0.126676 13.721689
v 4.280338 0.126676 13.697250
v 4.267213 0.152523 13.696759
v 4.268150 0.152523 13.723984
v 4.268150 0.125282 13.723984
v 4.267213 0.125282 13.696759
v 4.255847 0.152523 13.696755
v 4.255166 0.152523 13.723988
v 4.255166 0.125282 13.723988
v 4.255847 0.125282 13.696755
v 4.247608 0.151767 13.697104
v 4.245368 0.151767 13.722736
v 4.245368 0.126037 13.722736
v 4.247608 0.126037 13.697104
v 4.237006 0.150481 13.697067
v 4.234325 0.150481 13.720068
v 4.234325 0.127324 13.720068
v 4.237006 0.127324 13.697067
v 4.218404 0.150481 13.695200
v 4.219559 0.150481 13.718328
v 4.219559 0.127324 13.718328
v 4.218404 0.127324 13.695200
v 4.207058 0.150481 13.697486
v 4.213768 0.150481 13.719649
v 4.213768 0.127324 13.719649
v 4.207058 0.127324 13.697486
v 4.191699 0.150481 13.703628
v 4.202073 0.150481 13.724331
v 4.202073 0.127324 13.724331
v 4.191699 0.127324 13.703628
v 4.181088 0.151318 13.709184
v 4.196449 0.151318 13.728694
v 4.196449 0.126486 13.728694
v 4.181088 0.126486 13.709184
v 4.169754 0.152019 13.719757
v 4.191550 0.152019 13.734354
v 4.191550 0.125786 13.734354
v 4.169754 0.125786 13.719757
v 4.163692 0.152019 13.733753
v 4.188594 0.152019 13.742002
v 4.188594 0.125786 13.742002
v 4.163692 0.125786 13.733753
v 4.160972 0.152019 13.744615
v 4.186804 0.152019 13.749180
v 4.186804 0.125786 13.749180
v 4.160972 0.125786 13.744615
v 4.159873 0.152019 13.755199
v 4.186100 0.152019 13.755730
v 4.186100 0.125786 13.755730
v 4.159873 0.125786 13.755199
v 4.160964 0.152019 13.771680
v 4.186812 0.152019 13.767206
v 4.186812 0.125786 13.767206
v 4.160964 0.125786 13.771680
v 4.164314 0.152019 13.783522
v 4.188873 0.152019 13.774303
v 4.188873 0.125786 13.774303
v 4.164314 0.125786 13.783522
v 4.168962 0.152019 13.793341
v 4.191440 0.152019 13.779817
v 4.191440 0.125786 13.779817
v 4.168962 0.125786 13.793341
v 4.179809 0.152019 13.807383
v 4.196826 0.152019 13.787419
v 4.196826 0.125786 13.787419
v 4.179809 0.125786 13.807383
v 4.191091 0.152019 13.813678
v 4.202680 0.152019 13.790143
v 4.202680 0.125786 13.790143
v 4.191091 0.125786 13.813678
v 4.210063 0.152019 13.822215
v 4.217077 0.152019 13.796937
v 4.217077 0.125786 13.796937
v 4.210063 0.125786 13.822215
v 4.220598 0.152019 13.823549
v 4.222775 0.152019 13.797407
v 4.222775 0.125786 13.797407
v 4.220598 0.125786 13.823549
v 4.229804 0.152019 13.824045
v 4.229804 0.152019 13.797812
v 4.229804 0.125786 13.797812
v 4.229804 0.125786 13.824045
v 4.238648 0.152019 13.823574
v 4.237193 0.152019 13.797381
v 4.237193 0.125786 13.797381
v 4.238648 0.125786 13.823574
v 4.203849 0.113866 14.165113
v 4.203849 0.163939 14.165113
v 4.203849 0.113866 14.246846
v 4.203849 0.163939 14.246846
v 4.189741 0.113866 14.165113
v 4.189741 0.163939 14.165113
v 4.189741 0.113866 14.246846
v 4.189741 0.163939 14.246846
v 4.203849 0.163939 14.165113
v 4.203849 0.163939 14.246846
v 4.203849 0.113866 14.246846
v 4.203849 0.113866 14.165113
v 4.189741 0.163939 14.165113
v 4.189741 0.163939 14.246846
v 4.189741 0.113866 14.246846
v 4.189741 0.113866 14.165113
vn -0.0000 1.0000 -0.0000
vn 0.1349 -0.9848 -0.1098
vn -0.0000 -1.0000 -0.0000
vn -0.0000 -0.0000 1.0000
vn -1.0000 -0.0000 -0.0000
vn 1.0000 -0.0000 -0.0000
vn 0.9999 -0.0000 -0.0124
vn -0.9999 -0.0000 -0.0115
vn -0.0000 0.8527 -0.5224
vn -0.0000 -0.0000 -1.0000
vn -0.0000 -0.8527 -0.5224
vn -0.0000 0.8527 0.5224
vn 0.9625 0.2712 -0.0000
vn 0.3333 -0.0000 0.9428
vn 0.1615 -0.0000 -0.9869
vn 0.4299 -0.0000 0.9029
vn 0.1349 0.9848 -0.1098
vn 0.0901 0.9955 -0.0289
vn 0.0901 -0.9955 -0.0289
vn -0.1499 -0.0000 -0.9887
vn 0.7713 -0.0000 0.6365
vn -0.3493 -0.0000 -0.9370
vn 0.3911 -0.0000 0.9203
vn 0.9617 -0.0000 0.2741
vn -0.7815 -0.0000 -0.6239
vn -0.9612 -0.0000 -0.2757
vn -0.0573 -0.9923 -0.1098
vn -0.9895 -0.0000 0.1443
vn 0.9908 -0.0000 -0.1352
vn 0.5760 -0.0000 -0.8174
vn -0.9523 -0.0000 0.3051
vn 0.8346 -0.0000 -0.5508
vn -0.0573 0.9923 -0.1098
vn -0.0976 0.9909 -0.0929
vn -0.0976 -0.9909 -0.0929
vn -0.7699 -0.0000 0.6381
vn -0.3768 -0.0000 0.9263
vn -0.4777 -0.0000 0.8785
vn 0.4849 -0.0000 -0.8746
vn 0.2785 -0.0000 -0.9604
vn 0.3777 -0.0000 -0.9259
vn -0.3015 -0.0000 0.9535
vn 0.0152 -0.0000 0.9999
vn 0.0120 -0.0000 -0.9999
vn 0.1434 -0.0000 0.9897
vn -0.1580 -0.0000 0.9874
vn 0.1580 -0.0000 -0.9874
vn 0.0374 -0.0000 -0.9993
vn 0.1019 -0.0000 -0.9948
vn 0.1155 0.9933 0.0023
vn 0.1155 -0.9933 0.0023
vn 0.1058 0.9944 -0.0036
vn 0.1058 -0.9944 -0.0036
vn 0.1735 -0.0000 0.9848
vn -0.0833 0.9965 -0.0046
vn 0.0003 -0.0000 1.0000
vn 0.0003 -0.0000 -1.0000
vn 0.0035 -0.0000 -1.0000
vn -0.0833 -0.9965 -0.0046
vn -0.1267 -0.0000 0.9919
vn -0.0424 -0.0000 -0.9991
vn -0.1166 0.9931 -0.0118
vn -0.1166 -0.9931 -0.0118
vn -0.2349 -0.0000 0.9720
vn -0.1170 -0.0000 0.9931
vn 0.0999 -0.0000 -0.9950
vn -0.3713 -0.0000 -0.9285
vn 0.2225 -0.0000 0.9749
vn -0.1975 -0.0000 -0.9803
vn 0.0739 -0.9961 -0.0473
vn 0.3716 -0.0000 0.9284
vn 0.0412 -0.9981 -0.0449
vn 0.6131 -0.0000 0.7900
vn -0.4639 -0.0000 -0.8859
vn 0.0739 0.9961 -0.0473
vn 0.7561 -0.0000 0.6544
vn -0.6821 -0.0000 -0.7312
vn 0.0412 0.9981 -0.0449
vn 0.9703 -0.0000 0.2419
vn 0.9327 -0.0000 0.3606
vn -0.9176 -0.0000 -0.3974
vn -0.9947 -0.0000 -0.1033
vn -0.9700 -0.0000 -0.2429
vn 0.9943 -0.0000 0.1069
vn 0.9981 -0.0000 -0.0620
vn -0.9978 -0.0000 0.0661
vn -0.9038 -0.0000 0.4279
vn 0.9603 -0.0000 -0.2789
vn -0.9622 -0.0000 0.2722
vn 0.9066 -0.0000 -0.4220
vn 0.4220 -0.0000 -0.9066
vn 0.8159 -0.0000 -0.5781
vn -0.7914 -0.0000 0.6113
vn -0.4104 -0.0000 0.9119
vn -0.4872 -0.0000 0.8733
vn -0.1256 -0.0000 0.9921
vn 0.4268 -0.0000 -0.9044
vn 0.0821 -0.0000 -0.9966
vn 0.0532 -0.0000 0.9986
vn 0.0576 -0.0000 -0.9983
vn -0.0538 -0.0000 0.9986
vn -0.2066 -0.9234 -0.3234
vn -0.0582 -0.0000 -0.9983
vn -0.2066 0.9234 -0.3234
vn 0.4794 -0.0000 0.8776
vn -0.0000 -0.8527 0.5224
vn 0.9854 -0.0000 0.1701
vn -0.9854 -0.0000 0.1701
vn 0.9854 -0.0000 -0.1701
vn -0.9625 -0.2712 -0.0000
vn -0.9854 -0.0000 -0.1701
vn -0.9625 0.2712 -0.0000
vn 0.9625 -0.2712 -0.0000
vt 0.375000 0.104399
vt 0.625000 0.104399
vt 0.625000 0.250000
vt 0.375000 0.250000
vt 0.625000 0.500000
vt 0.375000 0.500000
vt 0.375000 0.728934
vt 0.625000 0.728934
vt 0.625000 0.750000
vt 0.375000 0.750000
vt 0.625000 1.000000
vt 0.375000 1.000000
vt 0.125000 0.728934
vt 0.125000 0.750000
vt 0.875000 0.728934
vt 0.875000 0.750000
vt 0.875000 0.500000
vt 0.875000 0.645601
vt 0.625000 0.645601
vt 0.125000 0.645601
vt 0.125000 0.500000
vt 0.375000 0.645601
vt 0.375000 0.021066
vt 0.625000 0.021066
vt 0.375000 0.000000
vt 0.625000 0.000000
s 0
f 9/1/1 12/2/1 4/3/1 3/4/1
f 8/5/2 7/6/2 51/6/2 52/5/2
f 13/7/3 16/8/3 6/9/3 5/10/3
f 5/10/4 6/9/4 2/11/4 1/12/4
f 10/13/5 13/7/5 5/10/5 1/14/5
f 16/8/6 11/15/6 2/16/6 6/9/6
f 8/5/7 4/17/7 12/18/7 15/19/7
f 17/20/6 21/20/6 41/20/6 37/20/6
f 3/21/8 7/6/8 14/22/8 9/20/8
f 13/7/4 10/13/4 18/13/4 19/7/4
f 7/6/3 8/5/3 15/19/3 14/22/3
f 10/23/6 11/24/6 31/24/6 30/23/6
f 1/25/1 2/26/1 11/24/1 10/23/1
f 28/22/6 24/22/6 44/22/6 48/22/6
f 18/13/9 22/13/9 196/13/9 192/13/9
f 13/7/6 19/7/6 39/7/6 33/7/6
f 24/22/6 20/22/6 40/22/6 44/22/6
f 9/20/10 14/22/10 20/22/10 17/20/10
f 21/20/10 24/22/10 28/22/10 25/20/10
f 16/8/6 13/7/6 33/7/6 36/8/6
f 37/20/11 41/20/11 201/20/11 197/20/11
f 27/7/6 26/13/6 46/13/6 47/7/6
f 18/13/6 10/13/6 30/13/6 38/13/6
f 14/22/6 15/19/6 35/19/6 34/22/6
f 23/7/4 22/13/4 26/13/4 27/7/4
f 25/20/6 28/22/6 48/22/6 45/20/6
f 35/19/6 32/18/6 31/15/6 36/8/6
f 34/22/3 35/19/3 36/8/3 33/7/3
f 30/23/1 31/24/1 32/2/1 29/1/1
f 34/22/3 33/7/3 39/7/3 40/22/3
f 30/23/1 29/1/1 37/1/1 38/23/1
f 21/20/12 17/20/12 190/20/12 194/20/12
f 40/22/13 39/7/13 199/7/13 200/22/13
f 45/20/5 48/22/5 47/7/5 46/13/5
f 42/23/1 41/1/1 45/1/1 46/23/1
f 44/22/3 43/7/3 47/7/3 48/22/3
f 20/22/6 14/22/6 34/22/6 40/22/6
f 21/20/6 25/20/6 45/20/6 41/20/6
f 12/2/6 9/1/6 29/1/6 32/2/6
f 22/13/6 18/13/6 38/13/6 42/13/6
f 15/19/6 12/18/6 32/18/6 35/19/6
f 9/20/6 17/20/6 37/20/6 29/20/6
f 26/13/6 22/13/6 42/13/6 46/13/6
f 19/7/6 23/7/6 43/7/6 39/7/6
f 11/15/6 16/8/6 36/8/6 31/15/6
f 23/7/6 27/7/6 47/7/6 43/7/6
f 49/17/14 52/5/14 56/5/14 53/17/14
f 187/6/15 186/21/15 50/21/15 51/6/15
f 4/17/16 8/5/16 52/5/16 49/17/16
f 3/4/17 4/3/17 49/3/17 50/4/17
f 56/5/3 55/6/3 59/6/3 60/5/3
f 50/4/18 49/3/18 53/3/18 54/4/18
f 52/5/19 51/6/19 55/6/19 56/5/19
f 51/6/20 50/21/20 54/21/20 55/6/20
f 57/17/21 60/5/21 64/5/21 61/17/21
f 55/6/22 54/21/22 58/21/22 59/6/22
f 53/17/23 56/5/23 60/5/23 57/17/23
f 54/4/1 53/3/1 57/3/1 58/4/1
f 61/17/24 64/5/24 68/5/24 65/17/24
f 58/4/1 57/3/1 61/3/1 62/4/1
f 60/5/3 59/6/3 63/6/3 64/5/3
f 59/6/25 58/21/25 62/21/25 63/6/25
f 66/4/1 65/3/1 69/3/1 70/4/1
f 62/4/1 61/3/1 65/3/1 66/4/1
f 64/5/3 63/6/3 67/6/3 68/5/3
f 63/6/26 62/21/26 66/21/26 67/6/26
f 72/5/27 71/6/27 75/6/27 76/5/27
f 68/5/3 67/6/3 71/6/3 72/5/3
f 67/6/28 66/21/28 70/21/28 71/6/28
f 65/17/29 68/5/29 72/5/29 69/17/29
f 73/17/30 76/5/30 80/5/30 77/17/30
f 71/6/31 70/21/31 74/21/31 75/6/31
f 69/17/32 72/5/32 76/5/32 73/17/32
f 70/4/33 69/3/33 73/3/33 74/4/33
f 80/5/3 79/6/3 83/6/3 84/5/3
f 74/4/34 73/3/34 77/3/34 78/4/34
f 76/5/35 75/6/35 79/6/35 80/5/35
f 75/6/36 74/21/36 78/21/36 79/6/36
f 83/6/37 82/21/37 86/21/37 87/6/37
f 79/6/38 78/21/38 82/21/38 83/6/38
f 77/17/39 80/5/39 84/5/39 81/17/39
f 78/4/1 77/3/1 81/3/1 82/4/1
f 85/17/40 88/5/40 92/5/40 89/17/40
f 81/17/41 84/5/41 88/5/41 85/17/41
f 82/4/1 81/3/1 85/3/1 86/4/1
f 84/5/3 83/6/3 87/6/3 88/5/3
f 92/5/3 91/6/3 95/6/3 96/5/3
f 86/4/1 85/3/1 89/3/1 90/4/1
f 88/5/3 87/6/3 91/6/3 92/5/3
f 87/6/42 86/21/42 90/21/42 91/6/42
f 96/5/3 95/6/3 99/6/3 100/5/3
f 91/6/43 90/21/43 94/21/43 95/6/43
f 89/17/44 92/5/44 96/5/44 93/17/44
f 90/4/1 89/3/1 93/3/1 94/4/1
f 99/6/45 98/21/45 102/21/45 103/6/45
f 95/6/46 94/21/46 98/21/46 99/6/46
f 93/17/47 96/5/47 100/5/47 97/17/47
f 94/4/1 93/3/1 97/3/1 98/4/1
f 101/17/48 104/5/48 108/5/48 105/17/48
f 97/17/49 100/5/49 104/5/49 101/17/49
f 98/4/50 97/3/50 101/3/50 102/4/50
f 100/5/51 99/6/51 103/6/51 104/5/51
f 108/5/3 107/6/3 111/6/3 112/5/3
f 102/4/52 101/3/52 105/3/52 106/4/52
f 104/5/53 103/6/53 107/6/53 108/5/53
f 103/6/54 102/21/54 106/21/54 107/6/54
f 110/4/55 109/3/55 113/3/55 114/4/55
f 107/6/56 106/21/56 110/21/56 111/6/56
f 105/17/57 108/5/57 112/5/57 109/17/57
f 106/4/1 105/3/1 109/3/1 110/4/1
f 113/17/58 116/5/58 120/5/58 117/17/58
f 112/5/59 111/6/59 115/6/59 116/5/59
f 111/6/60 110/21/60 114/21/60 115/6/60
f 109/17/61 112/5/61 116/5/61 113/17/61
f 118/4/1 117/3/1 121/3/1 122/4/1
f 114/4/62 113/3/62 117/3/62 118/4/62
f 116/5/63 115/6/63 119/6/63 120/5/63
f 115/6/64 114/21/64 118/21/64 119/6/64
f 124/5/3 123/6/3 127/6/3 128/5/3
f 120/5/3 119/6/3 123/6/3 124/5/3
f 119/6/65 118/21/65 122/21/65 123/6/65
f 117/17/66 120/5/66 124/5/66 121/17/66
f 125/17/67 128/5/67 132/5/67 129/17/67
f 123/6/68 122/21/68 126/21/68 127/6/68
f 121/17/69 124/5/69 128/5/69 125/17/69
f 122/4/1 121/3/1 125/3/1 126/4/1
f 132/5/70 131/6/70 135/6/70 136/5/70
f 126/4/1 125/3/1 129/3/1 130/4/1
f 128/5/3 127/6/3 131/6/3 132/5/3
f 127/6/71 126/21/71 130/21/71 131/6/71
f 136/5/72 135/6/72 139/6/72 140/5/72
f 131/6/73 130/21/73 134/21/73 135/6/73
f 129/17/74 132/5/74 136/5/74 133/17/74
f 130/4/75 129/3/75 133/3/75 134/4/75
f 140/5/3 139/6/3 143/6/3 144/5/3
f 135/6/76 134/21/76 138/21/76 139/6/76
f 133/17/77 136/5/77 140/5/77 137/17/77
f 134/4/78 133/3/78 137/3/78 138/4/78
f 143/6/79 142/21/79 146/21/79 147/6/79
f 139/6/80 138/21/80 142/21/80 143/6/80
f 137/17/81 140/5/81 144/5/81 141/17/81
f 138/4/1 137/3/1 141/3/1 142/4/1
f 145/17/82 148/5/82 152/5/82 149/17/82
f 141/17/83 144/5/83 148/5/83 145/17/83
f 142/4/1 141/3/1 145/3/1 146/4/1
f 144/5/3 143/6/3 147/6/3 148/5/3
f 150/4/1 149/3/1 153/3/1 154/4/1
f 146/4/1 145/3/1 149/3/1 150/4/1
f 148/5/3 147/6/3 151/6/3 152/5/3
f 147/6/84 146/21/84 150/21/84 151/6/84
f 156/5/3 155/6/3 159/6/3 160/5/3
f 152/5/3 151/6/3 155/6/3 156/5/3
f 151/6/85 150/21/85 154/21/85 155/6/85
f 149/17/86 152/5/86 156/5/86 153/17/86
f 157/17/87 160/5/87 164/5/87 161/17/87
f 155/6/88 154/21/88 158/21/88 159/6/88
f 153/17/89 156/5/89 160/5/89 157/17/89
f 154/4/1 153/3/1 157/3/1 158/4/1
f 164/5/3 163/6/3 167/6/3 168/5/3
f 158/4/1 157/3/1 161/3/1 162/4/1
f 160/5/3 159/6/3 163/6/3 164/5/3
f 159/6/90 158/21/90 162/21/90 163/6/90
f 167/6/91 166/21/91 170/21/91 171/6/91
f 163/6/92 162/21/92 166/21/92 167/6/92
f 161/17/93 164/5/93 168/5/93 165/17/93
f 162/4/1 161/3/1 165/3/1 166/4/1
f 169/17/94 172/5/94 176/5/94 173/17/94
f 165/17/95 168/5/95 172/5/95 169/17/95
f 166/4/1 165/3/1 169/3/1 170/4/1
f 168/5/3 167/6/3 171/6/3 172/5/3
f 173/17/96 176/5/96 180/5/96 177/17/96
f 170/4/1 169/3/1 173/3/1 174/4/1
f 172/5/3 171/6/3 175/6/3 176/5/3
f 171/6/97 170/21/97 174/21/97 175/6/97
f 180/5/3 179/6/3 183/6/3 184/5/3
f 174/4/1 173/3/1 177/3/1 178/4/1
f 176/5/3 175/6/3 179/6/3 180/5/3
f 175/6/98 174/21/98 178/21/98 179/6/98
f 181/17/99 184/5/99 188/5/99 185/17/99
f 179/6/100 178/21/100 182/21/100 183/6/100
f 177/17/101 180/5/101 184/5/101 181/17/101
f 178/4/1 177/3/1 181/3/1 182/4/1
f 188/5/102 187/6/102 51/6/102 7/6/102
f 182/4/1 181/3/1 185/3/1 186/4/1
f 184/5/3 183/6/3 187/6/3 188/5/3
f 183/6/103 182/21/103 186/21/103 187/6/103
f 186/4/104 185/3/104 3/4/104 50/4/104
f 185/17/105 188/5/105 7/6/105 3/21/105
f 190/20/10 189/22/10 193/22/10 194/20/10
f 191/7/4 192/13/4 196/13/4 195/7/4
f 198/23/1 197/1/1 201/1/1 202/23/1
f 200/22/3 199/7/3 203/7/3 204/22/3
f 42/13/106 38/13/106 198/13/106 202/13/106
f 23/7/11 19/7/11 191/7/11 195/7/11
f 39/7/12 43/7/12 203/7/12 199/7/12
f 17/20/107 20/22/107 189/22/107 190/20/107
f 24/22/108 21/20/108 194/20/108 193/22/108
f 19/7/109 18/13/109 192/13/109 191/7/109
f 41/1/110 42/23/110 202/23/110 201/1/110
f 22/13/111 23/7/111 195/7/111 196/13/111
f 43/7/112 44/22/112 204/22/112 203/7/112
f 38/23/113 37/1/113 197/1/113 198/23/113
f 20/22/106 24/22/106 193/22/106 189/22/106
f 44/22/9 40/22/9 200/22/9 204/22/9
