# Blender 4.2.1 LTS
# www.blender.org
mtllib pot.mtl
o PlantPot
v 0.000000 -0.645905 -0.645905
v -0.000000 -0.683867 -0.539509
v 0.126010 -0.645905 -0.633494
v 0.105253 -0.683867 -0.529142
v 0.247177 -0.645905 -0.596738
v 0.206461 -0.683867 -0.498441
v 0.358845 -0.645905 -0.537050
v 0.299735 -0.683867 -0.448585
v 0.456724 -0.645905 -0.456724
v 0.381490 -0.683867 -0.381490
v 0.537050 -0.645905 -0.358845
v 0.448585 -0.683867 -0.299735
v 0.596738 -0.645905 -0.247177
v 0.498441 -0.683867 -0.206461
v 0.633494 -0.645905 -0.126010
v 0.529142 -0.683867 -0.105253
v 0.645905 -0.645905 0.000000
v 0.539509 -0.683867 0.000000
v 0.633494 -0.645905 0.126010
v 0.529142 -0.683867 0.105253
v 0.596738 -0.645905 0.247177
v 0.498441 -0.683867 0.206461
v 0.537050 -0.645905 0.358845
v 0.448585 -0.683867 0.299735
v 0.456724 -0.645905 0.456724
v 0.381490 -0.683867 0.381490
v 0.358845 -0.645905 0.537050
v 0.299735 -0.683867 0.448585
v 0.247177 -0.645905 0.596738
v 0.206461 -0.683867 0.498441
v 0.126010 -0.645905 0.633494
v 0.105253 -0.683867 0.529142
v 0.000000 -0.645905 0.645905
v -0.000000 -0.683867 0.539509
v -0.126010 -0.645905 0.633494
v -0.105253 -0.683867 0.529142
v -0.247177 -0.645905 0.596738
v -0.206461 -0.683867 0.498441
v -0.358845 -0.645905 0.537050
v -0.299735 -0.683867 0.448585
v -0.456724 -0.645905 0.456724
v -0.381490 -0.683867 0.381490
v -0.537050 -0.645905 0.358845
v -0.448585 -0.683867 0.299735
v -0.596738 -0.645905 0.247177
v -0.498441 -0.683867 0.206461
v -0.633494 -0.645905 0.126010
v -0.529142 -0.683867 0.105253
v -0.645905 -0.645905 0.000000
v -0.539509 -0.683867 0.000000
v -0.633494 -0.645905 -0.126010
v -0.529142 -0.683867 -0.105253
v -0.596738 -0.645905 -0.247177
v -0.498441 -0.683867 -0.206461
v -0.537050 -0.645905 -0.358845
v -0.448585 -0.683867 -0.299735
v -0.456724 -0.645905 -0.456724
v -0.381490 -0.683867 -0.381490
v -0.358845 -0.645905 -0.537050
v -0.299735 -0.683867 -0.448585
v -0.247177 -0.645905 -0.596738
v -0.206461 -0.683867 -0.498441
v -0.126010 -0.645905 -0.633494
v -0.105253 -0.683867 -0.529142
v 0.167134 0.645905 -0.840241
v -0.000000 0.645905 -0.856702
v 0.327846 0.645905 -0.791489
v 0.475958 0.645905 -0.712322
v 0.605780 0.645905 -0.605780
v 0.712322 0.645905 -0.475958
v 0.791489 0.645905 -0.327846
v 0.840241 0.645905 -0.167134
v 0.856702 0.645905 0.000000
v 0.840241 0.645905 0.167134
v 0.791489 0.645905 0.327846
v 0.712322 0.645905 0.475958
v 0.605780 0.645905 0.605780
v 0.475958 0.645905 0.712322
v 0.327846 0.645905 0.791489
v 0.167134 0.645905 0.840241
v -0.000000 0.645905 0.856702
v -0.167134 0.645905 0.840241
v -0.327846 0.645905 0.791489
v -0.475958 0.645905 0.712322
v -0.605780 0.645905 0.605780
v -0.712322 0.645905 0.475958
v -0.791489 0.645905 0.327846
v -0.840241 0.645905 0.167134
v -0.856702 0.645905 0.000000
v -0.840241 0.645905 -0.167134
v -0.791489 0.645905 -0.327846
v -0.712322 0.645905 -0.475958
v -0.605780 0.645905 -0.605780
v -0.475958 0.645905 -0.712322
v -0.327846 0.645905 -0.791489
v -0.167134 0.645905 -0.840241
v 0.144858 0.645905 -0.728250
v -0.000000 0.645905 -0.742518
v 0.284149 0.645905 -0.685997
v 0.412521 0.645905 -0.617381
v 0.525039 0.645905 -0.525039
v 0.617381 0.645905 -0.412521
v 0.685997 0.645905 -0.284149
v 0.728250 0.645905 -0.144858
v 0.742518 0.645905 0.000000
v 0.728250 0.645905 0.144858
v 0.685997 0.645905 0.284149
v 0.617381 0.645905 0.412521
v 0.525039 0.645905 0.525039
v 0.412521 0.645905 0.617381
v 0.284149 0.645905 0.685997
v 0.144858 0.645905 0.728250
v -0.000000 0.645905 0.742518
v -0.144858 0.645905 0.728250
v -0.284149 0.645905 0.685997
v -0.412521 0.645905 0.617381
v -0.525039 0.645905 0.525039
v -0.617381 0.645905 0.412521
v -0.685997 0.645905 0.284149
v -0.728250 0.645905 0.144858
v -0.742518 0.645905 0.000000
v -0.728250 0.645905 -0.144858
v -0.685997 0.645905 -0.284149
v -0.617381 0.645905 -0.412521
v -0.525039 0.645905 -0.525039
v -0.412521 0.645905 -0.617381
v -0.284149 0.645905 -0.685997
v -0.144858 0.645905 -0.728250
vn 0.0967 -0.1603 -0.9823
vn 0.2865 -0.1603 -0.9446
vn 0.4653 -0.1603 -0.8705
vn 0.6262 -0.1603 -0.7630
vn 0.7630 -0.1603 -0.6262
vn 0.8705 -0.1603 -0.4653
vn 0.9446 -0.1603 -0.2865
vn 0.9823 -0.1603 -0.0967
vn 0.9823 -0.1603 0.0967
vn 0.9446 -0.1603 0.2865
vn 0.8705 -0.1603 0.4653
vn 0.7630 -0.1603 0.6262
vn 0.6262 -0.1603 0.7630
vn 0.4653 -0.1603 0.8705
vn 0.2865 -0.1603 0.9446
vn 0.0967 -0.1603 0.9823
vn -0.0967 -0.1603 0.9823
vn -0.2865 -0.1603 0.9446
vn -0.4653 -0.1603 0.8705
vn -0.6262 -0.1603 0.7630
vn -0.7630 -0.1603 0.6262
vn -0.8705 -0.1603 0.4653
vn -0.9446 -0.1603 0.2865
vn -0.9823 -0.1603 0.0967
vn -0.9823 -0.1603 -0.0967
vn -0.9446 -0.1603 -0.2865
vn -0.8705 -0.1603 -0.4653
vn -0.7630 -0.1603 -0.6262
vn -0.6262 -0.1603 -0.7630
vn -0.4653 -0.1603 -0.8705
vn -0.0000 1.0000 -0.0000
vn -0.2865 -0.1603 -0.9446
vn -0.0967 -0.1603 -0.9823
vn -0.0000 -1.0000 -0.0000
vn -0.0969 0.1502 0.9839
vn -0.2870 0.1502 0.9461
vn -0.4660 0.1502 0.8719
vn -0.6272 0.1502 0.7642
vn -0.7642 0.1502 0.6272
vn -0.8719 0.1502 0.4660
vn -0.9461 0.1502 0.2870
vn -0.9839 0.1502 0.0969
vn -0.9839 0.1502 -0.0969
vn -0.9461 0.1502 -0.2870
vn -0.8719 0.1502 -0.4660
vn -0.7642 0.1502 -0.6272
vn -0.6272 0.1502 -0.7642
vn -0.4660 0.1502 -0.8719
vn -0.2870 0.1502 -0.9461
vn -0.0969 0.1502 -0.9839
vn 0.0969 0.1502 -0.9839
vn 0.2870 0.1502 -0.9461
vn 0.4660 0.1502 -0.8719
vn 0.6272 0.1502 -0.7642
vn 0.7642 0.1502 -0.6272
vn 0.8719 0.1502 -0.4660
vn 0.9461 0.1502 -0.2870
vn 0.9839 0.1502 -0.0969
vn 0.9839 0.1502 0.0969
vn 0.9461 0.1502 0.2870
vn 0.8719 0.1502 0.4660
vn 0.7642 0.1502 0.6272
vn 0.6272 0.1502 0.7642
vn 0.4660 0.1502 0.8719
vn 0.2870 0.1502 0.9461
vn 0.0969 0.1502 0.9839
vt 1.000000 0.500000
vt 1.000000 1.000000
vt 0.968750 1.000000
vt 0.968750 0.500000
vt 0.937500 1.000000
vt 0.937500 0.500000
vt 0.906250 1.000000
vt 0.906250 0.500000
vt 0.875000 1.000000
vt 0.875000 0.500000
vt 0.843750 1.000000
vt 0.843750 0.500000
vt 0.812500 1.000000
vt 0.812500 0.500000
vt 0.781250 1.000000
vt 0.781250 0.500000
vt 0.750000 1.000000
vt 0.750000 0.500000
vt 0.718750 1.000000
vt 0.718750 0.500000
vt 0.687500 1.000000
vt 0.687500 0.500000
vt 0.656250 1.000000
vt 0.656250 0.500000
vt 0.625000 1.000000
vt 0.625000 0.500000
vt 0.593750 1.000000
vt 0.593750 0.500000
vt 0.562500 1.000000
vt 0.562500 0.500000
vt 0.531250 1.000000
vt 0.531250 0.500000
vt 0.500000 1.000000
vt 0.500000 0.500000
vt 0.468750 1.000000
vt 0.468750 0.500000
vt 0.437500 1.000000
vt 0.437500 0.500000
vt 0.406250 1.000000
vt 0.406250 0.500000
vt 0.375000 1.000000
vt 0.375000 0.500000
vt 0.343750 1.000000
vt 0.343750 0.500000
vt 0.312500 1.000000
vt 0.312500 0.500000
vt 0.281250 1.000000
vt 0.281250 0.500000
vt 0.250000 1.000000
vt 0.250000 0.500000
vt 0.218750 1.000000
vt 0.218750 0.500000
vt 0.187500 1.000000
vt 0.187500 0.500000
vt 0.156250 1.000000
vt 0.156250 0.500000
vt 0.125000 1.000000
vt 0.125000 0.500000
vt 0.093750 1.000000
vt 0.093750 0.500000
vt 0.062500 1.000000
vt 0.062500 0.500000
vt 0.290581 0.454015
vt 0.250000 0.458012
vt 0.209419 0.454015
vt 0.170397 0.442178
vt 0.134435 0.422955
vt 0.102913 0.397087
vt 0.077044 0.365565
vt 0.057822 0.329603
vt 0.045985 0.290581
vt 0.041988 0.250000
vt 0.045985 0.209419
vt 0.057822 0.170397
vt 0.077044 0.134435
vt 0.102913 0.102913
vt 0.134435 0.077044
vt 0.170397 0.057822
vt 0.209419 0.045985
vt 0.250000 0.041988
vt 0.290581 0.045985
vt 0.329603 0.057822
vt 0.365565 0.077044
vt 0.397087 0.102913
vt 0.422956 0.134435
vt 0.442178 0.170397
vt 0.454015 0.209419
vt 0.458012 0.250000
vt 0.454015 0.290581
vt 0.442178 0.329603
vt 0.422956 0.365565
vt 0.397087 0.397087
vt 0.365565 0.422956
vt 0.329603 0.442178
vt 0.031250 1.000000
vt 0.031250 0.500000
vt 0.000000 1.000000
vt 0.000000 0.500000
vt 0.750000 0.490000
vt 0.796822 0.485388
vt 0.841844 0.471731
vt 0.883337 0.449553
vt 0.919706 0.419706
vt 0.949553 0.383337
vt 0.971731 0.341844
vt 0.985388 0.296822
vt 0.990000 0.250000
vt 0.985388 0.203178
vt 0.971731 0.158156
vt 0.949553 0.116663
vt 0.919706 0.080294
vt 0.883337 0.050447
vt 0.841844 0.028269
vt 0.796822 0.014612
vt 0.750000 0.010000
vt 0.703178 0.014612
vt 0.658156 0.028269
vt 0.616663 0.050447
vt 0.580294 0.080294
vt 0.550447 0.116663
vt 0.528269 0.158156
vt 0.514612 0.203178
vt 0.510000 0.250000
vt 0.514612 0.296822
vt 0.528269 0.341844
vt 0.550447 0.383337
vt 0.580294 0.419706
vt 0.616663 0.449553
vt 0.658156 0.471731
vt 0.703178 0.485388
vt 0.296822 0.485388
vt 0.250000 0.490000
vt 0.341844 0.471731
vt 0.383337 0.449553
vt 0.419706 0.419706
vt 0.449553 0.383337
vt 0.471731 0.341844
vt 0.485388 0.296822
vt 0.490000 0.250000
vt 0.485388 0.203178
vt 0.471731 0.158156
vt 0.449553 0.116663
vt 0.419706 0.080294
vt 0.383337 0.050447
vt 0.341844 0.028269
vt 0.296822 0.014612
vt 0.250000 0.010000
vt 0.203178 0.014612
vt 0.158156 0.028269
vt 0.116663 0.050447
vt 0.080294 0.080294
vt 0.050447 0.116663
vt 0.028269 0.158156
vt 0.014612 0.203178
vt 0.010000 0.250000
vt 0.014612 0.296822
vt 0.028269 0.341844
vt 0.050447 0.383337
vt 0.080294 0.419706
vt 0.116663 0.449553
vt 0.158156 0.471731
vt 0.203178 0.485388
s 0
f 1/1/1 66/2/1 65/3/1 3/4/1
f 3/4/2 65/3/2 67/5/2 5/6/2
f 5/6/3 67/5/3 68/7/3 7/8/3
f 7/8/4 68/7/4 69/9/4 9/10/4
f 9/10/5 69/9/5 70/11/5 11/12/5
f 11/12/6 70/11/6 71/13/6 13/14/6
f 13/14/7 71/13/7 72/15/7 15/16/7
f 15/16/8 72/15/8 73/17/8 17/18/8
f 17/18/9 73/17/9 74/19/9 19/20/9
f 19/20/10 74/19/10 75/21/10 21/22/10
f 21/22/11 75/21/11 76/23/11 23/24/11
f 23/24/12 76/23/12 77/25/12 25/26/12
f 25/26/13 77/25/13 78/27/13 27/28/13
f 27/28/14 78/27/14 79/29/14 29/30/14
f 29/30/15 79/29/15 80/31/15 31/32/15
f 31/32/16 80/31/16 81/33/16 33/34/16
f 33/34/17 81/33/17 82/35/17 35/36/17
f 35/36/18 82/35/18 83/37/18 37/38/18
f 37/38/19 83/37/19 84/39/19 39/40/19
f 39/40/20 84/39/20 85/41/20 41/42/20
f 41/42/21 85/41/21 86/43/21 43/44/21
f 43/44/22 86/43/22 87/45/22 45/46/22
f 45/46/23 87/45/23 88/47/23 47/48/23
f 47/48/24 88/47/24 89/49/24 49/50/24
f 49/50/25 89/49/25 90/51/25 51/52/25
f 51/52/26 90/51/26 91/53/26 53/54/26
f 53/54/27 91/53/27 92/55/27 55/56/27
f 55/56/28 92/55/28 93/57/28 57/58/28
f 57/58/29 93/57/29 94/59/29 59/60/29
f 59/60/30 94/59/30 95/61/30 61/62/30
f 4/63/31 2/64/31 64/65/31 62/66/31 60/67/31 58/68/31 56/69/31 54/70/31 52/71/31 50/72/31 48/73/31 46/74/31 44/75/31 42/76/31 40/77/31 38/78/31 36/79/31 34/80/31 32/81/31 30/82/31 28/83/31 26/84/31 24/85/31 22/86/31 20/87/31 18/88/31 16/89/31 14/90/31 12/91/31 10/92/31 8/93/31 6/94/31
f 61/62/32 95/61/32 96/95/32 63/96/32
f 63/96/33 96/95/33 66/97/33 1/98/33
f 1/99/34 3/100/34 5/101/34 7/102/34 9/103/34 11/104/34 13/105/34 15/106/34 17/107/34 19/108/34 21/109/34 23/110/34 25/111/34 27/112/34 29/113/34 31/114/34 33/115/34 35/116/34 37/117/34 39/118/34 41/119/34 43/120/34 45/121/34 47/122/34 49/123/34 51/124/34 53/125/34 55/126/34 57/127/34 59/128/34 61/129/34 63/130/34
f 98/64/31 97/63/31 65/131/31 66/132/31
f 97/63/31 99/94/31 67/133/31 65/131/31
f 99/94/31 100/93/31 68/134/31 67/133/31
f 100/93/31 101/92/31 69/135/31 68/134/31
f 101/92/31 102/91/31 70/136/31 69/135/31
f 102/91/31 103/90/31 71/137/31 70/136/31
f 103/90/31 104/89/31 72/138/31 71/137/31
f 104/89/31 105/88/31 73/139/31 72/138/31
f 105/88/31 106/87/31 74/140/31 73/139/31
f 106/87/31 107/86/31 75/141/31 74/140/31
f 107/86/31 108/85/31 76/142/31 75/141/31
f 108/85/31 109/84/31 77/143/31 76/142/31
f 109/84/31 110/83/31 78/144/31 77/143/31
f 110/83/31 111/82/31 79/145/31 78/144/31
f 111/82/31 112/81/31 80/146/31 79/145/31
f 112/81/31 113/80/31 81/147/31 80/146/31
f 113/80/31 114/79/31 82/148/31 81/147/31
f 114/79/31 115/78/31 83/149/31 82/148/31
f 115/78/31 116/77/31 84/150/31 83/149/31
f 116/77/31 117/76/31 85/151/31 84/150/31
f 117/76/31 118/75/31 86/152/31 85/151/31
f 118/75/31 119/74/31 87/153/31 86/152/31
f 119/74/31 120/73/31 88/154/31 87/153/31
f 120/73/31 121/72/31 89/155/31 88/154/31
f 121/72/31 122/71/31 90/156/31 89/155/31
f 122/71/31 123/70/31 91/157/31 90/156/31
f 123/70/31 124/69/31 92/158/31 91/157/31
f 124/69/31 125/68/31 93/159/31 92/158/31
f 125/68/31 126/67/31 94/160/31 93/159/31
f 126/67/31 127/66/31 95/161/31 94/160/31
f 127/66/31 128/65/31 96/162/31 95/161/31
f 128/65/31 98/64/31 66/132/31 96/162/31
f 2/64/35 4/63/35 97/63/35 98/64/35
f 4/63/36 6/94/36 99/94/36 97/63/36
f 6/94/37 8/93/37 100/93/37 99/94/37
f 8/93/38 10/92/38 101/92/38 100/93/38
f 10/92/39 12/91/39 102/91/39 101/92/39
f 12/91/40 14/90/40 103/90/40 102/91/40
f 14/90/41 16/89/41 104/89/41 103/90/41
f 16/89/42 18/88/42 105/88/42 104/89/42
f 18/88/43 20/87/43 106/87/43 105/88/43
f 20/87/44 22/86/44 107/86/44 106/87/44
f 22/86/45 24/85/45 108/85/45 107/86/45
f 24/85/46 26/84/46 109/84/46 108/85/46
f 26/84/47 28/83/47 110/83/47 109/84/47
f 28/83/48 30/82/48 111/82/48 110/83/48
f 30/82/49 32/81/49 112/81/49 111/82/49
f 32/81/50 34/80/50 113/80/50 112/81/50
f 34/80/51 36/79/51 114/79/51 113/80/51
f 36/79/52 38/78/52 115/78/52 114/79/52
f 38/78/53 40/77/53 116/77/53 115/78/53
f 40/77/54 42/76/54 117/76/54 116/77/54
f 42/76/55 44/75/55 118/75/55 117/76/55
f 44/75/56 46/74/56 119/74/56 118/75/56
f 46/74/57 48/73/57 120/73/57 119/74/57
f 48/73/58 50/72/58 121/72/58 120/73/58
f 50/72/59 52/71/59 122/71/59 121/72/59
f 52/71/60 54/70/60 123/70/60 122/71/60
f 54/70/61 56/69/61 124/69/61 123/70/61
f 56/69/62 58/68/62 125/68/62 124/69/62
f 58/68/63 60/67/63 126/67/63 125/68/63
f 60/67/64 62/66/64 127/66/64 126/67/64
f 62/66/65 64/65/65 128/65/65 127/66/65
f 64/65/66 2/64/66 98/64/66 128/65/66
