# Blender 4.2.1 LTS
# www.blender.org
mtllib Room.mtl
o Walls1
v -11.459223 0.155366 -16.281506
v -11.459223 11.108929 -16.281506
v -11.459223 0.155366 -16.705135
v -11.459223 11.108929 -16.705135
v 11.654278 0.155366 -16.281506
v 11.654278 11.108929 -16.281506
v 11.654278 0.155366 -16.705135
v 11.654278 11.108929 -16.705135
v -11.459223 0.155366 16.281509
v -11.459223 11.108929 16.281509
v -11.459223 0.155366 16.705135
v -11.459223 11.108929 16.705135
v 11.654278 0.155366 16.281509
v 11.654278 11.108929 16.281509
v 11.654278 0.155366 16.705135
v 11.654278 11.108929 16.705135
v 3.949777 0.155366 16.705135
v -3.754723 0.155366 16.705135
v -3.754723 11.108929 16.705135
v 3.949777 11.108929 16.705135
v -3.754723 0.155366 16.281509
v 3.949777 0.155366 16.281509
v 3.949777 11.108929 16.281509
v -3.754723 11.108929 16.281509
v -11.459223 3.806554 16.281509
v -11.459223 7.457741 16.281509
v -11.459223 7.457741 16.705135
v -11.459223 3.806554 16.705135
v 11.654278 7.457741 16.705135
v 11.654278 3.806554 16.705135
v 11.654278 7.457741 16.281509
v 11.654278 3.806554 16.281509
v 3.949777 4.986403 16.281509
v 3.949777 8.637590 16.281509
v -3.754723 4.986403 16.281509
v -3.754723 8.637590 16.281509
v -3.754723 4.986403 19.427952
v -3.754723 8.637590 19.427952
v 3.949777 4.986403 19.427952
v 3.949777 8.637590 19.427952
v 3.949777 4.986403 20.119522
v 3.949777 8.637590 20.119522
v -3.754723 4.986403 20.119522
v -3.754723 8.637590 20.119522
vn -1.0000 -0.0000 -0.0000
vn -0.0000 -0.0000 -1.0000
vn 1.0000 -0.0000 -0.0000
vn -0.0000 -0.0000 1.0000
vn -0.0000 -1.0000 -0.0000
vn -0.0000 1.0000 -0.0000
vn 0.1891 0.3990 0.8972
vn -0.1891 0.3990 0.8972
vn -0.0000 0.7405 0.6721
vn -0.0000 -0.4910 0.8712
vn -0.1433 -0.3025 0.9423
vn -0.3332 -0.0000 0.9429
vn 0.1433 -0.3025 0.9423
vn 0.3332 -0.0000 0.9429
vt 0.375000 0.000000
vt 0.625000 0.000000
vt 0.625000 0.250000
vt 0.375000 0.250000
vt 0.625000 0.500000
vt 0.375000 0.500000
vt 0.625000 0.750000
vt 0.375000 0.750000
vt 0.625000 1.000000
vt 0.375000 1.000000
vt 0.125000 0.500000
vt 0.125000 0.750000
vt 0.875000 0.500000
vt 0.875000 0.750000
vt 0.541667 0.000000
vt 0.541667 0.250000
vt 0.541667 0.416667
vt 0.541667 0.500000
vt 0.625000 0.416667
vt 0.541667 0.750000
vt 0.541667 0.916667
vt 0.541667 1.000000
vt 0.625000 0.916667
vt 0.291667 0.500000
vt 0.291667 0.750000
vt 0.791667 0.500000
vt 0.791667 0.750000
vt 0.708333 0.750000
vt 0.708333 0.500000
vt 0.208333 0.750000
vt 0.208333 0.500000
vt 0.541667 0.833333
vt 0.625000 0.833333
vt 0.541667 0.333333
vt 0.625000 0.333333
vt 0.375000 0.333333
vt 0.375000 0.416667
vt 0.458333 0.416667
vt 0.458333 0.333333
vt 0.458333 0.250000
vt 0.375000 0.833333
vt 0.375000 0.916667
vt 0.458333 0.916667
vt 0.458333 0.833333
vt 0.458333 0.750000
vt 0.458333 1.000000
vt 0.458333 0.500000
vt 0.458333 0.000000
s 0
f 1/1/1 2/2/1 4/3/1 3/4/1
f 3/4/2 4/3/2 8/5/2 7/6/2
f 7/6/3 8/5/3 6/7/3 5/8/3
f 5/8/4 6/7/4 2/9/4 1/10/4
f 3/11/5 7/6/5 5/8/5 1/12/5
f 8/5/6 4/13/6 2/14/6 6/7/6
f 26/15/1 27/16/1 12/3/1 10/2/1
f 40/17/7 29/18/7 16/5/7 20/19/7
f 29/18/3 31/20/3 14/7/3 16/5/3
f 36/21/2 26/22/2 10/9/2 24/23/2
f 17/24/5 22/25/5 13/8/5 15/6/5
f 19/26/6 24/27/6 10/14/6 12/13/6
f 16/5/6 14/7/6 23/28/6 20/29/6
f 20/29/6 23/28/6 24/27/6 19/26/6
f 11/11/5 9/12/5 21/30/5 18/31/5
f 18/31/5 21/30/5 22/25/5 17/24/5
f 31/20/2 34/32/2 23/33/2 14/7/2
f 34/32/2 36/21/2 24/23/2 23/33/2
f 27/16/8 38/34/8 19/35/8 12/3/8
f 38/34/9 40/17/9 20/19/9 19/35/9
f 18/36/10 17/37/10 39/38/10 37/39/10
f 37/39/4 39/38/4 40/17/4 38/34/4
f 11/4/11 18/36/11 37/39/11 28/40/11
f 28/40/12 37/39/12 38/34/12 27/16/12
f 22/41/2 21/42/2 35/43/2 33/44/2
f 35/43/3 36/21/3 44/21/3 43/43/3
f 13/8/2 22/41/2 33/44/2 32/45/2
f 32/45/2 33/44/2 34/32/2 31/20/2
f 21/42/2 9/10/2 25/46/2 35/43/2
f 35/43/2 25/46/2 26/22/2 36/21/2
f 15/6/3 13/8/3 32/45/3 30/47/3
f 30/47/3 32/45/3 31/20/3 29/18/3
f 17/37/13 15/6/13 30/47/13 39/38/13
f 39/38/14 30/47/14 29/18/14 40/17/14
f 9/1/1 11/4/1 28/40/1 25/48/1
f 25/48/1 28/40/1 27/16/1 26/15/1
f 41/44/2 43/43/2 44/21/2 42/32/2
f 34/32/1 33/44/1 41/44/1 42/32/1
f 33/44/6 35/43/6 43/43/6 41/44/6
f 36/21/5 34/32/5 42/32/5 44/21/5
o Floor
v -11.389731 -0.191372 16.425482
v -11.389731 0.191372 16.425482
v -11.389731 -0.191372 -16.425482
v -11.389731 0.191372 -16.425482
v 11.389731 -0.191372 16.425482
v 11.389731 0.191372 16.425482
v 11.389731 -0.191372 -16.425482
v 11.389731 0.191372 -16.425482
vn -1.0000 -0.0000 -0.0000
vn -0.0000 -0.0000 -1.0000
vn 1.0000 -0.0000 -0.0000
vn -0.0000 -0.0000 1.0000
vn -0.0000 -1.0000 -0.0000
vn -0.0000 1.0000 -0.0000
vt 0.375000 0.000000
vt 0.625000 0.000000
vt 0.625000 0.250000
vt 0.375000 0.250000
vt 0.625000 0.500000
vt 0.375000 0.500000
vt 0.625000 0.750000
vt 0.375000 0.750000
vt 0.625000 1.000000
vt 0.375000 1.000000
vt 0.125000 0.500000
vt 0.125000 0.750000
vt 0.875000 0.500000
vt 0.875000 0.750000
s 0
f 45/49/15 46/50/15 48/51/15 47/52/15
f 47/52/16 48/51/16 52/53/16 51/54/16
f 51/54/17 52/53/17 50/55/17 49/56/17
f 49/56/18 50/55/18 46/57/18 45/58/18
f 47/59/19 51/54/19 49/56/19 45/60/19
f 52/53/20 48/61/20 46/62/20 50/55/20
o Walls2
v 11.618537 0.155366 16.674686
v 11.618537 11.108929 16.674686
v 11.194908 0.155366 16.674686
v 11.194908 11.108929 16.674686
v 11.618536 0.155366 -16.722836
v 11.618536 11.108929 -16.722836
v 11.194907 0.155366 -16.722836
v 11.194907 11.108929 -16.722836
v -11.618535 0.155366 16.674686
v -11.618535 11.108929 16.674686
v -11.194907 0.155366 16.674686
v -11.194907 11.108929 16.674686
v -11.618533 0.155366 -16.722836
v -11.618533 11.108929 -16.722836
v -11.194903 0.155366 -16.722836
v -11.194903 11.108929 -16.722836
v -11.618533 2.156642 -5.834901
v -11.194905 2.156642 -5.834901
v -11.194903 2.576537 -5.834900
v -11.618533 8.739315 -5.834901
v -11.194905 8.739315 -5.834901
v -11.194903 8.687757 -5.834899
v -11.618533 3.666673 5.968677
v -11.618535 2.156642 5.968676
v -11.194907 2.156642 5.968676
v -11.194907 2.536082 5.968677
v -11.618535 8.739315 5.968676
v -11.194907 8.739315 5.968676
v -11.194907 8.728212 5.968677
vn -0.0000 -0.0000 1.0000
vn -1.0000 -0.0000 -0.0000
vn -0.0000 -0.0000 -1.0000
vn 1.0000 -0.0000 -0.0000
vn -0.0000 -1.0000 -0.0000
vn -0.0000 1.0000 -0.0000
vt 0.375000 0.000000
vt 0.625000 0.000000
vt 0.625000 0.250000
vt 0.375000 0.250000
vt 0.625000 0.500000
vt 0.375000 0.500000
vt 0.625000 0.750000
vt 0.375000 0.750000
vt 0.625000 1.000000
vt 0.375000 1.000000
vt 0.125000 0.500000
vt 0.125000 0.750000
vt 0.875000 0.500000
vt 0.875000 0.750000
vt 0.874527 0.500000
vt 0.627282 0.500000
vt 0.625000 0.500000
vt 0.455141 0.919859
vt 0.420676 0.919859
vt 0.420676 0.831503
vt 0.375000 0.500000
vt 0.355553 0.500000
vt 0.142227 0.500000
vt 0.570917 0.831503
vt 0.570917 0.919859
vt 0.375000 0.320540
vt 0.375000 0.372193
vt 0.390947 0.372193
vt 0.623042 0.372193
vt 0.625000 0.372193
vt 0.625000 0.320540
vt 0.752808 0.750000
vt 0.804461 0.750000
vt 0.804460 0.500000
vt 0.752807 0.500000
vt 0.375000 0.877808
vt 0.375000 0.929460
vt 0.432349 0.929460
vt 0.625000 0.929461
vt 0.625000 0.877808
vt 0.624578 0.877808
vt 0.389411 0.877807
vt 0.195540 0.750000
vt 0.247192 0.750000
vt 0.247193 0.500000
vt 0.195540 0.500000
s 0
f 53/63/21 54/64/21 56/65/21 55/66/21
f 55/66/22 56/65/22 60/67/22 59/68/22
f 59/68/23 60/67/23 58/69/23 57/70/23
f 57/70/24 58/69/24 54/71/24 53/72/24
f 55/73/25 59/68/25 57/70/25 53/74/25
f 60/67/26 56/75/26 54/76/26 58/69/26
f 61/63/21 63/66/21 64/65/21 62/64/21
f 68/67/24 64/75/24 81/75/24 80/77/24 73/78/24 74/79/24
f 67/68/23 65/70/23 66/69/23 68/67/23
f 65/70/22 61/72/22 75/80/22 76/81/22 69/82/22
f 63/73/25 61/74/25 65/70/25 67/68/25
f 68/67/26 66/69/26 62/76/26 64/75/26
f 64/65/24 63/66/24 78/66/24 81/65/24
f 67/68/24 68/67/24 74/79/24 71/83/24
f 63/73/24 67/68/24 71/83/24 70/84/24 77/85/24 78/73/24
f 72/86/22 79/87/22 75/80/22 61/72/22 62/71/22 66/69/22 65/70/22 69/82/22
f 69/88/21 70/89/21 71/90/21 74/91/21 73/92/21 72/93/21
f 80/94/25 79/95/25 72/96/25 73/97/25
f 77/98/23 76/99/23 75/100/23 79/101/23 80/102/23 81/103/23 78/104/23
f 76/105/26 77/106/26 70/107/26 69/108/26
