# Blender 4.2.1 LTS
# www.blender.org
mtllib TVFrame.mtl
o TV
v -6.805525 3.852237 16.297989
v -6.805525 10.037554 16.297989
v -6.805525 3.852237 15.664133
v -6.805525 10.037554 15.664133
v 6.805525 3.852237 16.297989
v 6.805525 10.037554 16.297989
v 6.805525 3.852237 15.664133
v 6.805525 10.037554 15.664133
v -6.210434 9.597504 15.664133
v -6.210434 4.292288 15.664133
v 6.210434 4.292288 15.664133
v 6.210434 9.597504 15.664133
v -6.210434 9.597504 15.739296
v -6.210434 4.292288 15.739296
v 6.210434 4.292288 15.739296
v 6.210434 9.597504 15.739296
vn -1.0000 -0.0000 -0.0000
vn -0.0000 -0.0000 -1.0000
vn 1.0000 -0.0000 -0.0000
vn -0.0000 -1.0000 -0.0000
vn -0.0000 1.0000 -0.0000
vt 0.375000 0.000000
vt 0.625000 0.000000
vt 0.625000 0.250000
vt 0.375000 0.250000
vt 0.875000 0.500000
vt 0.625000 0.500000
vt 0.375000 0.500000
vt 0.625000 0.750000
vt 0.375000 0.750000
vt 0.125000 0.500000
vt 0.125000 0.750000
vt 0.875000 0.750000
s 0
f 1/1/1 2/2/1 4/3/1 3/4/1
f 4/5/2 8/6/2 12/6/2 9/5/2
f 7/7/3 8/6/3 6/8/3 5/9/3
f 3/10/4 7/7/4 5/9/4 1/11/4
f 8/6/5 4/5/5 2/12/5 6/8/5
f 12/6/1 11/7/1 15/7/1 16/6/1
f 3/4/2 4/3/2 9/3/2 10/4/2
f 8/6/2 7/7/2 11/7/2 12/6/2
f 7/7/2 3/10/2 10/10/2 11/7/2
f 11/7/5 10/10/5 14/10/5 15/7/5
f 9/5/4 12/6/4 16/6/4 13/5/4
f 10/4/3 9/3/3 13/3/3 14/4/3
